<svg width="56" height="36" viewBox="0 0 56 36" fill="none" xmlns="http://www.w3.org/2000/svg">
<rect x="0.5" y="0.5" width="55" height="35" rx="5.5" fill="white"/>
<rect x="0.5" y="0.5" width="55" height="35" rx="5.5" stroke="#CCCCCC"/>
<path fill-rule="evenodd" clip-rule="evenodd" d="M27.5761 7.45064C27.8104 7.21632 28.1903 7.21632 28.4246 7.45064L32.9246 11.9506C33.1589 12.185 33.1589 12.5649 32.9246 12.7992C32.6903 13.0335 32.3104 13.0335 32.0761 12.7992L28.6001 9.32323V19.1249C28.6001 19.4563 28.3315 19.7249 28.0001 19.7249C27.6688 19.7249 27.4001 19.4563 27.4001 19.1249V9.32363L23.9246 12.7992C23.6903 13.0335 23.3104 13.0335 23.0761 12.7992C22.8418 12.5649 22.8418 12.185 23.0761 11.9506L27.5761 7.45064ZM20.1251 17.3499C19.8352 17.3499 19.6001 17.585 19.6001 17.8749V26.9999C19.6001 27.2899 19.8352 27.5249 20.1251 27.5249H35.8751C36.1651 27.5249 36.4001 27.2899 36.4001 26.9999V17.8749C36.4001 17.585 36.1651 17.3499 35.8751 17.3499H33.6251C33.2938 17.3499 33.0251 17.0813 33.0251 16.7499C33.0251 16.4185 33.2938 16.1499 33.6251 16.1499H35.8751C36.8278 16.1499 37.6001 16.9222 37.6001 17.8749V26.9999C37.6001 27.9526 36.8278 28.7249 35.8751 28.7249H20.1251C19.1725 28.7249 18.4001 27.9526 18.4001 26.9999V17.8749C18.4001 16.9222 19.1725 16.1499 20.1251 16.1499H22.3751C22.7065 16.1499 22.9751 16.4185 22.9751 16.7499C22.9751 17.0813 22.7065 17.3499 22.3751 17.3499H20.1251Z" fill="#101010"/>
</svg>
